<svg xmlns="http://www.w3.org/2000/svg" version="1.1" xmlns:xlink="http://www.w3.org/1999/xlink" xmlns:svgjs="http://svgjs.dev/svgjs" width="1500" height="1500" viewBox="0 0 1500 1500"><g transform="matrix(1,0,0,1,0,0)"><svg viewBox="0 0 280 280" data-background-color="#ffffff" preserveAspectRatio="xMidYMid meet" height="1500" width="1500" xmlns="http://www.w3.org/2000/svg" xmlns:xlink="http://www.w3.org/1999/xlink"><g id="tight-bounds" transform="matrix(1,0,0,1,0,0)"><svg viewBox="0 0 280 280" height="280" width="280"><g><svg viewBox="0 0 280 280" height="280" width="280"><g><svg viewBox="0 0 280 280" height="280" width="280"><g id="textblocktransform"><svg viewBox="0 0 280 280" height="280" width="280" id="textblock"><g><svg viewBox="0 0 280 280" height="280" width="280"><g transform="matrix(1,0,0,1,79.94646978382445,74.00336708925556)"><svg viewBox="0 0 120.1070604323511 131.99326582148888" height="131.99326582148888" width="120.1070604323511"><g id="icon-0"><svg xmlns="http://www.w3.org/2000/svg" xmlns:xlink="http://www.w3.org/1999/xlink" version="1.1" x="0" y="0" viewBox="25.666656672152495 62.09551869133249 333.4623433278475 366.4629170499096" enable-background="new 21.75 59.426 337.379 375" xml:space="preserve" width="120.1070604323511" height="131.99326582148888" class="icon-xg-0" data-fill-palette-color="accent" id="xg-0"><g fill="#000000" data-fill-palette-color="accent"><path d="M168.095 277.323c3.742 0.277 7.126 0.021 10.24-1.125 2.653-0.977 4.975-0.588 7.46 0.182 4.584 1.42 9.335 1.747 13.747-0.098 4.651-1.946 8.876-0.147 13.253 0.486 12.908 1.866 27.506-5.144 30.233-20.098 0.135-0.741 0.007-1.541 0.206-2.256 0.648-2.332-2.542-5.137-0.03-6.774 2.854-1.86 6.563-2.141 10.033-2.208 7.596-0.147 12 4.787 15.935 10.361 8.133 11.522 14.238 24.158 20.32 36.817 4.13 8.596 0.351 15.91-3.774 22.968-8.316 14.228-17.906 27.645-26.995 41.38-5.335 8.062-10.781 16.05-16.071 24.141-2.25 3.441-4.115 4.537-7.932 1.354-5.658-4.72-6.083-4.46-1.938-10.453 11.868-17.161 23.91-34.203 35.752-51.382 2.826-4.1 5.217-8.511 7.667-12.858 2.583-4.584 2.968-9.312 0.819-14.273-4.391-10.137-9.052-20.122-14.952-29.494-3.158-5.016-8.969-5.65-12.753-1.059-5.736 6.959-12.445 12.799-19.77 17.985-9.799 6.936-22.662 7.422-32.78 0.992-2.749-1.746-4.446-1.772-7.529 0.085-11.493 6.925-23.255 6.418-34.602-0.792-7.194-4.571-13.512-10.185-19.23-16.511-4.905-5.426-9.709-5.137-13.719 0.944-6.523 9.893-11.561 20.56-15.555 31.696-1.458 4.066-0.457 7.978 1.674 11.744 9.27 16.377 20.842 31.122 32.323 45.938 5.183 6.688 10.238 13.476 15.474 20.122 1.928 2.447 2.763 4.174-1.026 5.613-2.914 1.106-5.022 5.308-7.896 4.52-2.333-0.639-3.95-4.236-5.683-6.665-10.592-14.846-21.155-29.712-31.666-44.615-5.043-7.149-9.533-14.618-13.742-22.316-4.627-8.461-1.61-15.885 1.695-23.414 4.986-11.36 11.152-22.056 18.217-32.287 5.965-8.639 12.304-10.648 24.184-7.942 1.944 0.443 2.456 1.246 2.211 3.111-1.369 10.415 3.46 19.13 12.975 23.404C159.181 276.483 163.636 277.899 168.095 277.323z" fill="#000000" data-fill-palette-color="accent"></path><path d="M144.373 108.226c5.154 3.492 10.152 5.849 15.76 6.694 1.417 0.213 2.954 0.332 3.865-0.708 1.237-1.413-0.463-2.557-1.166-3.376-6.84-7.971-6.905-16.62-2.89-25.757 0.299-0.681 0.607-1.474 1.153-1.909 1.981-1.575 2.805-5.36 5.345-5.008 2.469 0.342 0.99 3.862 1.739 5.92 2.298 6.316 5.514 10.561 11.028 12.766-1.29-6.35-0.01-12.221 1.746-18.165 1.865-6.312 7.199-10.249 9.967-15.894 0.629-1.283 1.872-0.566 2.568 0.382 4.957 6.751 10.886 12.855 12.056 21.851 0.504 3.873-0.37 7.457-0.696 11.216 7.056-1.379 11.654-8.272 12.318-18.198 11.226 4.339 12.275 19.103 2.173 35.95 6.076 0.535 11.47-0.135 16.415-3.484 0.912-0.618 1.712-2.184 3.052-1.283 1.335 0.898 0.811 2.493 0.59 3.792-2.357 13.814-11.549 22.322-25.718 23.822-0.894 0.095-1.88 0.161-2.706-0.114-2.14-0.712-5.156 0.066-6.352-1.85-1.313-2.104 1.801-3.278 2.573-5.106 2.927-6.931 2.863-13.421-2.058-19.539-4.022-5.001-9.282-6.396-15.323-5.603-8.004 1.051-12.798 6.043-14.611 13.492-1.213 4.985 0.31 10.028 3.67 13.972 2.384 2.799 1.775 3.22-1.427 4.126C160.656 140.967 142.115 125.86 144.373 108.226z" fill="#000000" data-fill-palette-color="accent"></path><path d="M317.761 329.622c-12.262 2.818-24.504 3.052-37.041 0.117 0.574-2.792 2.301-5.05 3.688-7.433 0.931-1.599 2.341-1.227 3.979-0.843 9.597 2.251 19.262 3.407 29.036 0.73-9.039-0.024-17.988-0.345-26.8-2.853-3.406-0.97-3.853-1.954-2.336-4.818 1.625-3.068 3.102-6.225 4.443-9.428 0.954-2.277 1.867-2.806 3.857-0.931 7.063 6.653 15.649 9.992 25.159 11.197 1.84 0.233 4.122 0.652 3.402-2.365-1.131-4.737 0.805-8.202 4.591-10.321 3.36-1.881 7.135-1.205 10.178 1.27 3.705 3.014 5.1 7.109 4.211 11.77-1.366 7.164-4.874 13.323-9.706 18.678-8.863 9.823-20.278 15.218-33.04 17.44-10.745 1.871-21.646 2.046-32.53 0.273-3.143-0.512-2.518-1.575-1.374-3.452 1.808-2.967 3.777-4.19 7.753-3.623 11.495 1.64 22.835 0.05 33.876-3.629-9.725 2.41-19.608 2.726-29.542 2.397-1.062-0.035-2.125-0.006-3.188-0.034-1.376-0.036-3.023 0.035-3.734-1.216-0.783-1.379 0.706-2.417 1.319-3.584 2.563-4.874 5.62-6.397 11.837-5.625C296.469 334.667 307.582 334.95 317.761 329.622z" fill="#000000" data-fill-palette-color="accent"></path><path d="M66.618 324.051c5.339 2.405 10.953 1.509 16.44 1.344 3.272-0.098 6.538-0.985 9.771-1.684 6.025-1.302 7.664-0.525 9.96 5.098 0.655 1.605 0.75 2.887-1.6 3.132-10.377 1.085-20.743 2.125-31.129 0.078-0.858-0.169-1.779-0.022-2.682 0.246 9.225 3.413 18.753 3.859 28.403 2.967 2.545-0.235 5.078-0.7 7.582-1.227 1.376-0.29 2.416-0.043 3.151 1.112 1.845 2.9 4.299 5.433 5.667 9.163-13.497 2.824-26.443 0.831-39.351-2.042 3.588 2.207 12.18 4.252 18.263 4.282 6.524 0.033 13.084 0.418 19.561-0.139 4.288-0.369 5.58 2.524 7.198 4.997 1.295 1.979-1.194 2.098-2.213 2.296-7.633 1.483-15.392 1.48-23.065 0.809-5.51-0.482-11.1-0.819-16.486-2.55-11.798-3.792-22.022-9.824-29.507-19.94-4.201-5.678-6.137-12.116-5.731-19.127 0.361-6.237 5.397-10.056 11.563-9.135 4.921 0.735 7.604 5.643 6.342 11.596-0.115 0.544-0.218 1.09-0.387 1.94 10.43 0.488 19.154-3.062 26.966-9.267 4.394-3.49 4.374-3.52 6.813 1.466 0.66 1.349 1.172 2.787 1.968 4.048 3.925 6.218 3.811 6.363-4.221 8.322C82.273 323.696 74.482 324.218 66.618 324.051z" fill="#000000" data-fill-palette-color="accent"></path><path d="M67.298 159.711c3.858 1.362 5.504 4.753 8.526 6.422 10.595 5.851 21.876 7.057 33.718 5.915 11.402-1.1 22.85-2.678 33.976 2.162 12.171 5.295 21.498 13.2 24.313 26.686 2.781 13.323-0.298 25.225-12.505 32.709-0.782 0.48-1.514 1.031-2.923 0.541 1.117-3.095 2.7-6.015 3.453-9.304 3.162-13.809-8.084-33.662-27.692-34.125-1.054-0.025-2.358 0.181-3.118-0.342-7.257-4.998-14.633-2.667-22.223-0.945-8.533 1.936-21.386-4.388-26.647-11.368C72.024 172.552 69.174 166.71 67.298 159.711z" fill="#000000" data-fill-palette-color="accent"></path><path d="M232.135 233.911c-5.53-1.645-8.537-5.352-11.116-8.973-9.351-13.125-5.176-31.058 4.068-40.555 11.838-12.162 26.197-16.829 42.934-13.895 13.536 2.374 34.505-2.746 44.573-11.048 1.18 0.705 0.82 1.83 0.594 2.77-5.242 21.76-23.804 29.37-41.398 24.051-3.07-0.928-5.663-1.133-8.48 0.862-2.594 1.838-5.865 2.354-8.998 2.647-15.263 1.426-27.075 15.665-26.006 31.144C228.611 225.319 230.121 229.271 232.135 233.911z" fill="#000000" data-fill-palette-color="accent"></path><path d="M310.236 275.889c-6.398 2.445-12.579 4.986-19.297 6.197-2.784 0.502-4.183 0.429-5.099-2.43-0.801-2.503-4.283-4.723-3.008-7.062 1.095-2.009 4.724-0.454 7.201-0.815 8.248-1.201 16.379-2.718 22.865-8.701-3.881 1.089-7.604 2.654-11.524 3.658-6.221 1.594-12.36 2.331-18.8 1.659-2.726-0.285-3.983-1.399-5.054-3.524-3.428-6.8-8.11-12.675-13.486-18.022-0.608-0.605-1.925-0.909-1.47-1.992 0.447-1.064 1.657-1.176 2.778-1.079 6.756 0.587 13.027 2.563 18.631 6.471 3.848 2.683 7.763 5.211 12.36 6.511 7.086 2.004 15.703-1.34 19.564-7.739-0.541-1.519-2.076-0.806-3.086-1.234-4.131-1.748-6.588-5.535-5.688-9.192 0.868-3.528 5.722-6.62 9.63-5.879 12.204 2.314 17.962 14.385 16.367 23.62-2.87 16.611-14.428 25.893-28.62 32.669-3.107 1.483-6.457 2.484-9.748 3.542-2.032 0.654-3.517 0.461-4.517-2.147-2.236-5.832-2.473-5.87 3.73-7.275C299.913 281.775 305.312 279.295 310.236 275.889z" fill="#000000" data-fill-palette-color="accent"></path><path d="M122.767 245.835c-8.257 5.775-12.86 13.25-17.37 20.754-1.478 2.459-3.152 3.338-6.105 3.524-10.352 0.651-20.343-0.132-29.594-5.499 6.146 5.439 9.189 6.336 30.947 9.434-0.201 3.13-2.239 5.545-3.446 8.222-1.195 2.649-4.099 1.58-6.161 1.163-5.609-1.135-11.132-2.681-16.214-5.442-0.664-0.361-1.238-0.892-2.349-0.239 5.993 4.209 12.86 5.738 19.542 7.644 1.642 0.468 3.438 0.823 2.356 2.702-1.271 2.205-0.367 7.322-4.339 6.195-16.32-4.633-30.446-12.666-37.604-29.142-4.16-9.576-1.372-20.773 6.099-27.315 3.735-3.271 8.895-3.904 12.934-1.76 3.01 1.597 4.343 3.88 4.218 7.349-0.126 3.482-2.23 5.557-4.983 6.285-4.667 1.234-2.985 3.176-0.836 4.921 5.103 4.144 10.967 5.476 17.407 3.82 5.666-1.457 10.311-4.823 15.145-7.915C108.203 246.829 114.462 244.475 122.767 245.835z" fill="#000000" data-fill-palette-color="accent"></path><path d="M150.205 140.818c-13.305 5.33-19.825-4.878-27.932-11.574 2.503 5.581 7.292 9.196 12.05 13.649-6.752 0.979-11.954 0.84-16.353-4.73-4.322-5.472-8.494-10.947-11.877-17.055 1.889 8.369 7.565 14.644 12.775 22.028-5.933-0.703-10.389-0.642-14.24-6.136-8.846-12.619-13.088-25.755-8.178-40.632 4.004-12.132 18.958-16.689 29.416-9.512 4.263 2.925 6.837 7.041 6.065 12.333-0.725 4.965-4.106 8.235-8.895 9.133-3.785 0.709-2.851 2.325-1.878 4.543 5.306 12.1 14.63 20.113 26.204 25.848C148.385 139.218 149.72 139.262 150.205 140.818z" fill="#000000" data-fill-palette-color="accent"></path><path d="M263.325 141.753c5.187-6.517 9.198-12.153 11.732-18.647 0.352-0.902 1.331-1.766 0.499-3.374-3.328 5.865-6.533 11.487-10.772 16.488-4.87 5.746-6.613 6.602-15.259 4.725 3.711-3.365 6.777-6.959 9.897-10.505 3.194-3.63 5.672-7.578 7.306-12.108-4.75 6.205-9.551 12.293-14.894 17.985-4.547 4.844-9.417 6.918-16.456 3.485 3.932-2.466 7.736-4.686 10.978-7.661 6.525-5.988 12.311-12.455 15.677-20.819 0.763-1.895 1.061-3.249-1.489-3.513-6.959-0.722-9.717-7.047-9.976-12.653-0.219-4.744 5.145-10.122 10.867-11.982 11.727-3.813 25.065 4.253 26.332 19.234 1.103 13.038-3.586 24.519-11.024 35.031C273.613 141.862 268.948 141.006 263.325 141.753z" fill="#000000" data-fill-palette-color="accent"></path><path d="M212.234 251.245c-0.006 12.635-6.767 21.364-18.176 23.651-5.291 1.061-9.688-1.504-13.513-4.803-7.423-6.403-9.064-14.955-7.207-23.944 1.722-8.34 6.839-14.247 15.584-16.454 9.631-2.43 19.274 3.561 22.289 14.188C211.945 246.475 212.757 249.126 212.234 251.245z" fill="#000000" data-fill-palette-color="accent"></path><path d="M150.645 281.739c-5.597-0.935-11.265-1.584-16.759-2.938-2.4-0.592-3.423-0.382-4.61 1.743-3.4 6.085-5.891 12.562-8.604 18.947-1.133 2.667 0.578 4.678 1.675 6.749 8.244 15.567 18.783 29.567 29.655 43.344 4.964 6.29 9.744 12.725 14.737 18.992 2.309 2.899 2.652 4.05-1.602 5.804-4.629 1.909-5.979-0.392-8.197-3.212-13.91-17.691-28.142-35.16-40.145-54.233-4.188-6.654-10.425-13.168-6.398-22.355 1.88-4.288 3.618-8.649 5.736-12.817 2.531-4.979 5.272-9.863 8.165-14.641 2.309-3.813 5.797-4.704 8.71-1.991 5.816 5.419 11.397 11.086 18.178 15.405C151.006 280.937 150.826 281.338 150.645 281.739z" fill="#000000" data-fill-palette-color="accent"></path><path d="M234.888 279.68c5.796-4.745 10.848-10.075 15.962-15.371 2.904-3.007 6.448-2.238 8.75 1.393 6.092 9.608 10.938 19.859 15.077 30.436 1.451 3.707-0.155 7.107-1.888 10.346-9.38 17.535-21.482 33.251-33.018 49.344-4.226 5.896-8.488 11.767-12.773 17.619-1.465 2-6.452 1.733-8.929-0.644-1.951-1.872 0.416-2.761 1.259-3.934 10.055-13.987 20.355-27.805 30.091-42.011 5.095-7.434 9.265-15.509 13.736-23.361 2.741-4.813-0.858-8.704-2.403-12.745-1.395-3.65-3.932-6.863-5.347-10.508-1.2-3.089-2.891-3.374-5.608-2.528C245.049 279.196 240.202 280.176 234.888 279.68z" fill="#000000" data-fill-palette-color="accent"></path><path d="M303.391 398.762c-3.264-6.044-1.889-12.978 3.305-16.696 4.938-3.534 13.122-2.263 17.698 2.772 0.608 0.669 1.202 1.386 1.638 2.172 1.207 2.176 2.099 2.319 4.149 0.457 6.949-6.313 12.962-7.158 19.745-3.334 6.63 3.737 9.268 12.927 5.143 19.468-0.877-2.742-0.792-5.573-3.185-7.309-2.306-1.672-4.834-1.638-7.387-1.441-5.075 0.392-6.881 4.549-8.697 8.279-2.702 5.551-4.658 11.458-9.513 15.737-6.509 5.737-14.134 8.361-22.681 8.759-2.414 0.112-3.831-0.631-3.585-3.288 0.296-3.203-1.909-6.787-0.813-9.224 1.318-2.93 5.662-0.587 8.637-1.743 4.629-1.8 8.927-3.773 11.541-8.219 1.72-2.925 2.21-6.018 0.181-8.988-2.375-3.476-5.845-4.759-9.9-3.979-3.228 0.621-5.497 2.431-5.61 6.095C304.053 398.449 303.626 398.605 303.391 398.762z" fill="#000000" data-fill-palette-color="accent"></path><path d="M81.556 399.521c-1.709-4.56-4.63-6.657-9.106-6.071-3.84 0.503-6.538 2.757-7.605 6.294-1.076 3.565 0.076 7.008 2.921 9.465 4.078 3.521 8.684 6.121 14.338 5.622 4.035-0.356 5.394 0.955 3.706 4.857-0.285 0.659-0.187 1.494-0.221 2.249-0.319 7.134-0.828 7.254-8.233 6.04-13.287-2.178-21.894-9.522-26.557-22.091-3.118-8.405-11.687-11.216-17.226-6.127-2.003 1.84-2.798 4.196-2.771 7.478-3.107-2.691-2.927-5.516-2.716-8.347 0.472-6.336 3.167-11.41 9.153-13.914 6.226-2.604 12.046-1.021 16.559 3.776 2.411 2.562 3.468 2.318 5.256-0.37 2.528-3.802 6.02-6.169 10.815-6.584 4.441-0.384 8.178 0.653 10.745 4.372C83.352 390.139 84.004 394.434 81.556 399.521z" fill="#000000" data-fill-palette-color="accent"></path><path d="M271.968 383.583c-7.109-0.448-14.199-0.512-20.934-3.152-1.462-0.573-4.378-0.058-3.39-2.693 0.912-2.432 2.127-5.825 6.131-4.454 5.738 1.964 11.706 2.294 17.83 2.185-3.585-0.819-7.169-1.649-10.759-2.448-0.587-0.13-1.322 0.07-1.787-0.213-1.865-1.137-5.308-0.163-5.714-2.688-0.405-2.516 2.393-4.324 3.745-6.447 1.066-1.673 2.658-0.505 4.011 0.167 5.423 2.693 10.95 4.962 17.086 5.644 2.482 0.276 3.165-0.324 3.409-2.688 0.587-5.684 3.411-8.166 8.842-8.18 4.685-0.012 8.996 3.934 9.174 8.984 0.27 7.644-2.529 13.93-9.35 17.943-14.609 8.595-30.01 7.538-45.613 3.578-1.815-0.461-3.259-1.664-2.003-3.588 1.208-1.85 1.318-5.393 5.342-3.9 7.201 2.672 14.715 2.954 22.293 2.24C270.849 383.821 271.406 383.682 271.968 383.583z" fill="#000000" data-fill-palette-color="accent"></path><path d="M113.781 383.886c7.902 1.594 15.748 1.078 23.289-1.271 4.499-1.402 5.131 1.989 6.658 4.264 0.908 1.352-0.302 2.053-1.662 2.438-14.352 4.061-28.705 5.361-42.973-0.224-8.378-3.279-14.946-11.188-13.547-20.218 0.677-4.371 3.309-7.157 7.295-8.388 3.501-1.082 6.526 0.348 8.777 3.236 0.457 0.587 1.169 1.323 1.103 1.916-0.67 6.016 2.463 5.589 6.864 4.718 4.814-0.952 9.236-2.559 13.502-4.866 3.089-1.671 8.929 1.862 8.872 5.313-0.026 1.569-1.341 1.82-2.513 2.123-2.325 0.602-4.645 1.234-6.988 1.757-2.183 0.487-4.393 0.848-7.549 1.446 5.867 1.197 10.47-0.33 15.075-1.579 3.733-1.013 7.056 0.611 8.106 4.093 0.607 2.016-1.283 1.89-2.094 2.162-5.291 1.777-10.657 3.292-16.339 3.092C117.7 383.828 115.739 383.886 113.781 383.886z" fill="#000000" data-fill-palette-color="accent"></path><path d="M119.335 168.248c-10.626-3.752-21.321-3.516-31.503-5.901-13.357-3.129-25.151-13.693-24.132-29.466 0.797-12.326 12.506-20.432 23.351-15.911 6.068 2.529 9.803 9.427 8.154 15.037-1.111 3.78-3.491 5.929-7.56 5.841-4.04-0.087-6.569-1.923-6.971-6.168-0.037-0.392-0.329-0.76-0.516-1.17-4.399 3.464-4.797 7.436-1.152 11.547 3.382 3.814 7.759 6.249 12.283 8.396 6.676 3.168 13.485 6.066 20.077 9.396C114.632 161.499 118.361 163.025 119.335 168.248z" fill="#000000" data-fill-palette-color="accent"></path><path d="M264.435 165.872c5.704-7.962 14.468-11.131 22.589-15.222 4.029-2.03 8.349-3.481 12.404-5.465 7.238-3.542 8.248-9.659 2.566-16.227-0.786 2.637-1.123 5.498-3.852 6.696-1.873 0.823-3.829 0.608-5.744-0.159-5.205-2.084-7.487-7.804-5.137-12.978 2.441-5.375 9.314-9.315 15.653-8.975 6.413 0.344 12.716 5.463 14.968 12.156 3.608 10.724-1.67 23.626-12.532 30.318-5.6 3.45-11.59 5.389-18.337 5.687C279.396 162.038 271.915 163.862 264.435 165.872z" fill="#000000" data-fill-palette-color="accent"></path><path d="M177.063 233.088c-2.518 3.897-4.759 7.216-6.046 11.158-3.213 9.842-1.112 18.455 5.541 26.038 2.589 2.951 2.42 3.727-1.621 4.53-12.893 2.562-25.31-3.619-29.225-14.77-3.25-9.256 2.187-18.527 10.008-23.542C161.945 232.51 169.048 231.19 177.063 233.088z" fill="#000000" data-fill-palette-color="accent"></path><path d="M215.072 252.383c0.386-6.021-1.656-11.49-5.136-16.4-2.199-3.102-1.6-4.173 2.107-4.283 10.149-0.302 18.908 2.458 24.538 11.492 7.309 11.728 1.127 26.004-12.994 30.349-4.706 1.448-9.514 1.385-14.333 0.522-2.589-0.464-2.965-1.221-1.025-3.357C212.866 265.598 215.206 259.489 215.072 252.383z" fill="#000000" data-fill-palette-color="accent"></path><path d="M199.92 163.334c-8.842 0.424-17.579 0.834-26.286-0.738-2.001-0.361-3.66-1.336-5.477-2.009-2.077-0.769-5.063-1.54-5.043-3.825 0.018-1.994 3.118-2.403 4.966-3.324 0.801-0.399 1.68-0.767 2.557-0.869 4.64-0.538 7.3-2.449 9.14-7.388 1.958-5.254 7.885-6.899 13.3-6.667 5.629 0.242 10.866 2.403 12.76 8.398 0.976 3.09 2.674 4.168 5.555 4.665 2.646 0.456 5.172 1.406 7.642 2.599 3.09 1.493 2.666 2.851 0.219 4.317C213.282 162.069 206.84 163.893 199.92 163.334z" fill="#000000" data-fill-palette-color="accent"></path><path d="M171.984 214.86c0.327-10.961 7.121-20.205 16.432-22.254 11.146-2.452 22.179 5.22 23.769 16.718 0.424 3.069 1.516 6.068 0.339 9.39-0.831 2.344-1.651 2.458-3.494 1.492-11.199-5.868-22.291-5.489-33.233 0.692-2.883 1.628-3.814 0.419-3.812-2.402C171.985 217.284 171.984 216.072 171.984 214.86z" fill="#000000" data-fill-palette-color="accent"></path><path d="M152.209 220.07c0.616 11.948-10.264 24.119-24.922 23.996-14.51-0.121-25.959-10.856-25.254-26.533 0.617-13.724 12.559-23.855 27.073-23.16C142.572 195.018 152.746 206.335 152.209 220.07zM127.691 199.509c-11.65-0.09-20.312 8.166-20.485 19.526-0.154 10.084 8.704 18.842 18.973 19.105 13.772 0.353 20.891-8.794 21.146-19.737C147.551 208.676 139.688 199.552 127.691 199.509z" fill="#000000" data-fill-palette-color="accent"></path><path d="M256.603 193.335c13.754-0.175 24.771 10.457 24.882 24.016 0.111 13.449-10.935 24.542-23.787 25.46-12.535 0.895-25.82-10.888-25.689-24.21C232.146 204.565 243.519 192.565 256.603 193.335zM236.836 217.39c-0.245 11.637 8.677 19.561 19.374 19.647 12.834 0.103 19.57-9.074 19.559-19.441-0.012-11.514-8.589-19.518-19.626-19.519C244.789 198.075 236.069 208.235 236.836 217.39z" fill="#000000" data-fill-palette-color="accent"></path><path d="M61.952 147.971c-0.256 5.738-1.037 10.187-0.783 14.771 0.541 9.731 5.947 16.84 11.694 23.915 3.879 4.775 8.495 9.175 8.219 16.138-0.068 1.722-0.483 3.287-1.088 4.808-1.05 2.644-2.995 4.096-5.952 3.516-3.179-0.623-5.067-3.356-4.502-5.853 0.769-3.401-0.939-5.12-2.654-7.09-1.584-1.819-3.384-3.463-5.179-5.084-6.588-5.951-10.176-13.106-8.536-22.14C54.583 163.17 55.975 155.319 61.952 147.971z" fill="#000000" data-fill-palette-color="accent"></path><path d="M320.866 146.405c6.475 10.579 11.109 21.482 7.141 34.143-1.659 5.293-5.515 8.92-9.426 12.467-2.952 2.677-5.474 5.164-5.377 9.809 0.064 3.049-1.594 6.442-5.761 6.263-4.156-0.178-5.453-3.262-5.894-6.789-0.594-4.752 1.377-8.556 4.712-11.759 8.229-7.906 14.398-16.882 15.887-28.601C322.826 156.59 321.614 151.563 320.866 146.405z" fill="#000000" data-fill-palette-color="accent"></path><path d="M213.983 364.036c0 1.516 0.178 3.06-0.044 4.543-0.285 1.903-1.412 2.874-3.533 2.428-6.542-1.376-13.168-1.715-19.845-1.748-4.871-0.024-9.664 0.488-14.369 1.542-2.603 0.583-3.353-0.253-3.246-2.607 0.014-0.303 0.036-0.606 0.038-0.909 0.126-12.908 0.11-12.829 12.617-10.46 7.528 1.426 15.137 1.147 22.388-1.191 3.959-1.276 5.501-0.522 5.795 3.419 0.124 1.659 0.251 3.317 0.377 4.976C214.101 364.031 214.042 364.034 213.983 364.036z" fill="#000000" data-fill-palette-color="accent"></path><path d="M193.093 164.975c8.061 0.102 13.657 5.265 13.145 12.385-0.514 7.142-6.999 11.631-14.991 11.176-3.373-0.192-6.832-0.91-9.543-3.572-5.052-4.961-4.906-11.618 0.55-16.125C185.172 166.429 189.381 164.928 193.093 164.975z" fill="#000000" data-fill-palette-color="accent"></path><path d="M191.715 329.217c-6.818 0.004-13.637-0.034-20.455 0.027-2.044 0.018-4.004-0.403-5.522-1.616-2.196-1.754-0.945-5.046 2.309-6.112 4.903-1.606 10.086-2.109 15.127-2.17 10.11-0.123 20.264-0.952 30.355 0.718 3.286 0.544 7.644 0.446 7.437 4.67-0.196 3.99-4.639 4.299-7.889 4.406C205.964 329.376 198.837 329.213 191.715 329.217z" fill="#000000" data-fill-palette-color="accent"></path><path d="M151.891 299.345c4.651 5.305 7.071 11.46 8.66 18.089 2.722 11.352 2.347 22.669-0.086 33.989-0.17 0.791 0.223 1.998-1.002 2.234-1.073 0.206-1.52-0.809-2.083-1.474-1.757-2.073-3.566-4.108-5.206-6.271-3.318-4.375-5.725-8.018-3.403-14.772 3.057-8.891 4.407-18.755 2.555-28.502C151.146 301.69 150.827 300.613 151.891 299.345z" fill="#000000" data-fill-palette-color="accent"></path><path d="M225.992 353.306c-3.988-19.072-4.395-37.015 7.226-54.562 0.049 13.136 1.602 25.003 4.55 36.678 0.38 1.507 0.206 2.921-0.825 4.282C233.567 344.162 230.446 348.822 225.992 353.306z" fill="#000000" data-fill-palette-color="accent"></path><path d="M134.856 322.788c2.484-13.348-0.051-26.015-2.997-38.611-0.586-2.506-1.426-3.614 2.254-2.557 4.139 1.189 8.38 2.434 12.854 2.181 1.553-0.088 3.604 0 3.316 2.587-1.475 13.252-4.984 25.728-13.904 36.112C136.231 322.67 135.823 322.616 134.856 322.788z" fill="#000000" data-fill-palette-color="accent"></path><path d="M251.01 279.991c1.942-0.045 2.294 0.678 1.929 2.277-2.774 12.129-3.887 24.417-3.379 36.854 0.033 0.807 0.495 1.977-0.565 2.397-0.985 0.39-1.608-0.451-2.088-1.254-6.188-10.336-10.227-21.423-12.03-33.363-0.398-2.634 0.327-3.65 2.821-3.816C242.388 282.776 246.943 281.838 251.01 279.991z" fill="#000000" data-fill-palette-color="accent"></path><path d="M217.714 291.515c-0.085 5.343-0.388 5.494-5.363 4.13-13.422-3.682-26.779-3.409-40.041 0.864-1.099 0.354-2.709 1.553-3.251 0.36-0.901-1.982-1.357-4.353-1.284-6.536 0.066-1.968 2.153-1.193 3.322-1.157 7.328 0.228 14.048-1.589 20.092-5.739 1.343-0.922 2.493-0.848 3.753-0.01 5.885 3.915 12.389 5.415 19.379 4.789C217.112 287.965 218.388 288.871 217.714 291.515z" fill="#000000" data-fill-palette-color="accent"></path><path d="M320.725 213.998c0.2-5.511-0.302-10.058-3.411-13.94-0.816-1.019-0.329-2.401 0.567-3.341 1.144-1.199 2.327-2.396 3.651-3.382 8.706-6.48 12.179-15.017 10.321-25.725-0.066-0.379 0.186-0.812 0.312-1.31C339.836 177.341 334.204 202.282 320.725 213.998z" fill="#000000" data-fill-palette-color="accent"></path><path d="M359.129 376.668c-0.093 1.659-0.126 2.719-0.216 3.774-0.217 2.555-0.718 5.585-2.729 6.709-1.485 0.83-2.63-2.372-4.188-3.516-1.683-1.236-3.279-2.702-4.573-4.336-3.2-4.041-5.109-8.483-2.823-13.678 0.587-1.333 0.638-2.582 0.31-3.958-0.235-0.986-0.916-2.25 0.028-2.975 1.199-0.921 2.55-0.204 3.792 0.41C356.283 362.825 358.653 369.493 359.129 376.668z" fill="#000000" data-fill-palette-color="accent"></path><path d="M194.919 345.497c-0.005-8.957-0.005-8.957 9.311-8.989 0.303-0.001 0.607-0.005 0.91-0.002 6.767 0.066 6.985 0.276 7.143 6.91 0.219 9.179 0.027 9.427-8.054 10.397C194.924 354.931 194.924 354.931 194.919 345.497z" fill="#000000" data-fill-palette-color="accent"></path><path d="M61.648 215.849c-11.7-11.28-17.635-33.562-12.771-43.578 0.781 9.878 4.129 18.057 12.519 23.648 3.565 2.376 5.585 5.349 2.155 9.713C61.484 208.262 61.953 211.849 61.648 215.849z" fill="#000000" data-fill-palette-color="accent"></path><path d="M191.28 346.287c-0.055 8.344-0.055 8.341-8.63 7.535-0.749-0.07-1.519 0.024-2.258-0.094-6.351-1.012-6.35-1.021-6.55-7.62-0.235-7.752-0.235-7.752 6.067-8.999C189.314 335.25 191.342 336.886 191.28 346.287z" fill="#000000" data-fill-palette-color="accent"></path><path d="M320.662 364.667c0.013-7.758 4.886-12.617 11.243-12.748 7.888-0.162 11.443 10.737 9.004 15.925-0.726 1.544-1.501 1.582-2.8 0.879-3.934-2.13-8.266-2.318-12.261-0.968C321.551 369.206 319.738 368.744 320.662 364.667z" fill="#000000" data-fill-palette-color="accent"></path><path d="M54.016 353.798c5.695 0.435 11.14 8.678 9.54 14.302-0.606 2.13-1.945 2.56-3.783 2.014-4.501-1.335-8.937-1.293-13.283 0.534-1.564 0.657-2.304 0.426-3.06-1.282C40.631 363.037 47.181 353.277 54.016 353.798z" fill="#000000" data-fill-palette-color="accent"></path><path d="M194.918 302.253c0.188-7.599-1.632-6.717 7.065-6.721 4.262-0.002 8.235 1.508 12.082 3.152 3.534 1.511 1.69 4.78 1.635 7.162-0.078 3.433-0.836 6.31-5.948 4.542-3.088-1.068-6.713-1.789-10.214-1.211-3.808 0.629-5.277-0.903-4.637-4.662C195.026 303.782 194.919 303.009 194.918 302.253z" fill="#000000" data-fill-palette-color="accent"></path><path d="M39.319 360.48c0.906 4.068-0.184 8.503 2.268 12.256 0.259 0.396 0.193 1.305-0.094 1.713-3.416 4.846-6.314 10.158-11.524 13.454-2.171 1.374-2.464-0.485-3.03-1.876C22.96 376.25 28.65 364.353 39.319 360.48z" fill="#000000" data-fill-palette-color="accent"></path><path d="M345.039 379.333c-6.061-0.242-11.166 1.258-15.276 5.203-1.719 1.65-2.607 1.256-3.922-0.4-1.686-2.123-3.664-4.08-6.272-5.052-3.086-1.15-3.166-2.392-0.867-4.691C327.056 366.041 339.614 368.13 345.039 379.333z" fill="#000000" data-fill-palette-color="accent"></path><path d="M190.611 303.088c0 1.057-0.133 2.134 0.028 3.166 0.315 2.019-0.047 3.064-2.481 2.943-4.532-0.224-8.972 0.72-13.389 1.634-2.736 0.567-4.413-0.1-4.448-3.261-0.02-1.787 0.117-3.559-0.475-5.366-0.72-2.201 1.152-2.652 2.734-3.304 4.913-2.025 10.217-2.189 15.311-3.341 1.944-0.439 2.751 0.673 2.724 2.545C190.592 299.766 190.611 301.427 190.611 303.088z" fill="#000000" data-fill-palette-color="accent"></path><path d="M67.317 378.487c0.041 0.824-0.216 1.405-1.046 1.783-3.22 1.469-5.944 3.623-8.303 6.243-0.995 1.105-1.911 1.303-3.024 0.107-3.496-3.758-7.968-5.279-12.974-5.455-1.539-0.054-2.474-0.458-1.477-2.132 3.066-5.148 8.03-7.49 13.62-7.767 5.179-0.257 9.531 2.372 12.897 6.388C67.191 377.867 67.222 378.206 67.317 378.487z" fill="#000000" data-fill-palette-color="accent"></path><path d="M153.314 171.76c-2.919-4.955-5.279-9.928-10.46-12.372-2.46-1.16-4.941-2.359-7.727-2.353-2.027 0.004-4.1 0.25-4.652-2.379-0.512-2.44-0.518-4.775 1.647-6.645 3.023-2.612 7.537-2.629 11.744 0.095C148.919 151.379 154.41 164.677 153.314 171.76z" fill="#000000" data-fill-palette-color="accent"></path><path d="M316.182 357.898c2.05-0.416 2.622 0.64 2.23 1.99-0.441 1.518-0.896 3.205-0.205 4.437 3.035 5.41-0.315 8.783-3.741 11.926-2.414 2.215-5.993 2.246-8.845 1.899-2.379-0.29-2.139-3.944-2.084-5.83C303.749 365.058 308.645 358.802 316.182 357.898z" fill="#000000" data-fill-palette-color="accent"></path><path d="M206.806 230.876c-3.481 0.007-6.314-2.29-9.689-3.056-5.224-1.185-9.788-0.017-14.458 1.719-0.844 0.314-1.604 0.847-2.441 1.187-2.531 1.03-6.378 0.825-7.126-0.558-1.256-2.323 2.31-3.241 3.986-4.343 10.436-6.861 21.03-7.084 31.582-0.155 1.339 0.879 3.754 1.668 3.232 3.27C211.301 230.756 208.737 230.556 206.806 230.876z" fill="#000000" data-fill-palette-color="accent"></path><path d="M230.295 172.463c-0.111-8.196 2.647-15.773 7.05-22.588 2.243-3.473 6.086-5.386 10.592-4.771 3.299 0.45 5.362 2.457 5.163 5.722-0.17 2.796-0.835 5.326-5.028 5.424-8.436 0.196-12.765 6.321-16.44 12.928C231.061 170.203 230.735 171.364 230.295 172.463z" fill="#000000" data-fill-palette-color="accent"></path><path d="M68.52 360.109c8.386 0.392 15.175 12.112 11.353 18.836-0.479 0.843-1.146 1.354-2.212 1.195-4.724-0.704-8.979-2.195-11.835-6.411-0.755-1.114-0.835-2.024-0.598-3.34 0.45-2.493 1.764-4.951 0.937-7.562C65.224 359.855 66.859 359.793 68.52 360.109z" fill="#000000" data-fill-palette-color="accent"></path><path d="M298.882 201.715c1.82 5.347 3.413 10.181 9.276 9.82 4.919-0.302 5.822-4.492 6.427-8.557 3.419 3.162 3.542 10.156 0.352 14.618-2.836 3.968-8.513 5.286-12.883 2.99C296.69 217.77 295.467 211.594 298.882 201.715z" fill="#000000" data-fill-palette-color="accent"></path><path d="M67 205.174c1.864 4.753 3.585 8.629 8.974 8.342 5.715-0.304 5.707-5.232 7.301-8.946 3.862 5.466 3.704 12.068-0.296 16.159-3.035 3.104-8.272 3.865-11.667 1.697C66.138 219.123 64.251 212.411 67 205.174z" fill="#000000" data-fill-palette-color="accent"></path><path d="M170.334 197.77c0.011-4.838 0.34-9.506-1.316-14.264-1.579-4.536-4.431-7.583-8.71-8.889-3.089-0.943-2.642-2.123-1.443-4.102 2.89-4.771 8.932-5.182 12.504-0.793 2.913 3.579 4.035 7.742 3.482 12.279C174.185 187.467 173.159 192.859 170.334 197.77z" fill="#000000" data-fill-palette-color="accent"></path><path d="M214.037 196.114c-2.924-4.751-3.779-9.923-4.509-15.093-0.742-5.251 1.966-9.433 5.174-13.046 3.039-3.423 8.486-2.276 10.682 1.813 0.982 1.828 1.027 3.218-1.341 4.196-7.2 2.974-9.474 9.121-9.984 16.251C213.919 192.185 214.037 194.154 214.037 196.114z" fill="#000000" data-fill-palette-color="accent"></path><path d="M74.281 234.704c13.953 0.675 16.721-3.167 19.306-13.658 2.745 4.057 3.485 7.583 2.231 11.97-1.232 4.313-3.812 6.994-7.888 7.667C82.617 241.56 77.95 239.904 74.281 234.704z" fill="#000000" data-fill-palette-color="accent"></path><path d="M308.518 232.306c-4.023 7.108-12.948 7.886-16.73 5.478-4.869-3.101-6.239-10.326-2.799-18.587C291.509 229.63 297.466 234.532 308.518 232.306z" fill="#000000" data-fill-palette-color="accent"></path><path d="M316.845 219.81c-2.615 8.153-10.947 12.39-17.729 9.568-6.175-2.569-10.082-9.412-5.07-20.247 0.707 6.168 2.037 11.692 7.407 14.306C306.886 226.082 312.113 224.646 316.845 219.81z" fill="#000000" data-fill-palette-color="accent"></path><path d="M88.176 210.821c3.974 5.251 3.781 10.726 0.769 16.044-2.536 4.478-6.888 5.576-11.724 4.937-5.126-0.678-8.507-3.723-10.827-8.293 4.979 3.092 10.136 4.76 15.513 1.818C87.542 222.244 87.947 216.585 88.176 210.821z" fill="#000000" data-fill-palette-color="accent"></path><path d="M132.147 162.134c-5.362-4.388-11.112-7.047-18.156-6.83-3.118 0.096-4.519-2.854-4.352-5.325 0.181-2.689 1.761-5.272 5.365-4.784 1.804 0.244 3.536 0.844 4.982 1.951C125.225 151.156 129.76 155.749 132.147 162.134z" fill="#000000" data-fill-palette-color="accent"></path><path d="M251.332 160.498c2.169-7.175 7.692-11.356 13.181-15.5 2.189-1.653 4.856-1.855 7.077-0.069 1.766 1.42 2.14 3.466 1.273 5.739-1.077 2.823-2.989 3.875-5.954 3.636C260.767 153.81 255.977 156.849 251.332 160.498z" fill="#000000" data-fill-palette-color="accent"></path><path d="M127.605 235.602c-9.653 0.259-17.253-6.869-17.426-16.343-0.158-8.641 7.821-16.692 16.904-16.649 10.815 0.051 17.553 7.104 17.488 16.245C144.508 227.835 138.972 235.306 127.605 235.602z" fill="#000000" data-fill-palette-color="accent"></path><path d="M239.571 217.342c0.227-7.494 6.537-16.426 17.865-15.838 7.935 0.412 15.865 6.699 15.5 16.804-0.369 10.234-8.017 16.242-17.269 16.131C246.26 234.326 239.388 226.967 239.571 217.342z" fill="#000000" data-fill-palette-color="accent"></path><path d="M191.726 109.133c-6.703 0-12.136 5.434-12.136 12.136 0 6.703 5.434 12.136 12.136 12.136 6.703 0 12.136-5.434 12.136-12.136C203.862 114.566 198.428 109.133 191.726 109.133zM191.726 127.337c-3.351 0-6.068-2.717-6.068-6.068 0-3.351 2.717-6.068 6.068-6.068s6.068 2.717 6.068 6.068C197.794 124.62 195.077 127.337 191.726 127.337z" fill="#000000" data-fill-palette-color="accent"></path></g></svg></g></svg></g><g id="text-0"><path d="M24.912 83.194v0c5.101 1.96 8.102 4.761 9.005 8.404v0c0.839 3.363 0.37 7.359-1.409 11.99v0l-4.038 10.511-0.706-0.271 0.942-2.452-24.588-9.445-0.942 2.451-0.706-0.271 4.409-11.477c1.826-4.754 4.168-7.946 7.025-9.577 2.857-1.63 6.526-1.585 11.008 0.137zM6.9 94.688l24.588 9.446 0.542-1.412c0.961-2.501 0.763-4.63-0.594-6.387-1.357-1.757-4.115-3.435-8.275-5.033v0l-2.154-0.828c-5.571-2.14-9.335-2.364-11.292-0.672v0c-0.935 0.806-1.759 2.137-2.473 3.995v0z" fill="#6e1313" data-fill-palette-color="primary"></path><path d="M21.602 64.45l-0.693-0.535 12.635-16.383 6.482 4.496-0.438 0.567c-2.802-0.754-4.969-0.952-6.502-0.593-1.533 0.359-3.02 1.473-4.462 3.342v0l-0.85 1.103 9.735 7.509 0.826-1.072c0.761-0.987 1.028-2.104 0.802-3.351-0.227-1.247-0.866-2.493-1.916-3.739v0l0.365-0.472 9.326 7.193-0.414 0.535c-1.867-0.837-3.383-1.194-4.549-1.072-1.166 0.122-2.179 0.74-3.037 1.853v0l-0.584 0.756 10.114 7.801 0.923-1.198c1.49-1.932 2.18-4.021 2.07-6.267-0.11-2.246-0.874-4.317-2.292-6.214v0l0.486-0.63 6.674 5.549-13.34 17.297-0.693-0.535 1.433-1.859-20.668-15.94z" fill="#6e1313" data-fill-palette-color="primary"></path><path d="M53.534 30.742l17.211 12.01-6.275-20.108-2.494 1.847-0.45-0.608 4.892-3.622 0.45 0.607-1.503 1.113 8.655 27.802-2.686 1.989-24.515-16.058-1.471 1.089-0.45-0.607 10.457-7.743 0.45 0.608z" fill="#6e1313" data-fill-palette-color="primary"></path><path d="M79.48 14.106l-0.298-0.695 11.147-4.796 0.299 0.695-2.01 0.865 10.409 24.195 2.011-0.865 0.298 0.695-11.147 4.796-0.299-0.695 2.01-0.865-10.41-24.195z" fill="#6e1313" data-fill-palette-color="primary"></path><path d="M104.84 5.117l-0.159-0.861 14.087-2.596 0.159 0.861-4.148 0.765 4.73 25.668 1.409-0.259c2.217-0.409 3.86-1.413 4.927-3.012 1.067-1.599 2.02-3.933 2.857-7v0l0.822-0.151 0.944 9.293-20.739 3.822-0.159-0.861 2.309-0.425-4.73-25.669z" fill="#6e1313" data-fill-palette-color="primary"></path><path d="M151.809 27.914v0c1.323 0.096 2.519-0.176 3.59-0.816 1.07-0.64 1.658-1.681 1.763-3.123 0.105-1.442-0.364-2.586-1.406-3.433-1.042-0.847-2.554-1.629-4.537-2.345-1.982-0.716-3.415-1.319-4.297-1.808-0.882-0.49-1.708-1.108-2.478-1.856v0c-1.54-1.495-2.205-3.684-1.995-6.568v0c0.171-2.355 1.158-4.317 2.961-5.888 1.803-1.571 4.16-2.251 7.07-2.039v0c1.402 0.102 2.849 0.413 4.34 0.934 1.491 0.521 2.422 0.795 2.793 0.821 0.37 0.027 0.72-0.214 1.05-0.721v0l0.436 0.031-0.305 8.037-0.635-0.047c-1.102-2.394-2.298-4.336-3.586-5.825-1.288-1.49-2.745-2.294-4.372-2.413-1.627-0.118-2.918 0.167-3.872 0.855-0.954 0.689-1.477 1.661-1.569 2.918-0.091 1.257 0.374 2.261 1.397 3.014 1.022 0.753 2.299 1.397 3.829 1.934 1.53 0.537 2.534 0.902 3.012 1.097 0.478 0.194 1.07 0.457 1.777 0.787 0.707 0.331 1.281 0.665 1.723 1.003 0.441 0.338 0.902 0.757 1.384 1.258 0.482 0.5 0.849 1.039 1.099 1.616v0c0.622 1.322 0.869 2.856 0.743 4.602v0c-0.208 2.857-1.268 5.087-3.179 6.69-1.912 1.603-4.323 2.299-7.233 2.087v0c-1.508-0.11-3.22-0.434-5.136-0.972-1.916-0.538-2.979-0.815-3.191-0.831v0c-0.37-0.027-0.756 0.344-1.158 1.113v0l-0.555-0.04 0.29-9.474 0.674 0.049c0.997 2.386 2.339 4.505 4.026 6.357 1.687 1.851 3.536 2.85 5.547 2.996z" fill="#6e1313" data-fill-palette-color="primary"></path><path d="M206.478 34v0l1.387-2.598c2.285-4.283 3.517-7.098 3.695-8.446v0c0.219-1.537-0.024-2.688-0.727-3.454v0c-0.392-0.449-0.938-0.862-1.64-1.236-0.702-0.375-1.355-0.603-1.958-0.684-0.603-0.081-1.193 0.025-1.771 0.318-0.577 0.293-1.103 0.644-1.576 1.052-0.474 0.409-1.019 1.05-1.636 1.924v0c-0.865 1.282-2.003 3.246-3.413 5.89v0l-1.349 2.527c-1.524 2.855-2.496 4.944-2.917 6.269-0.421 1.324-0.605 2.331-0.552 3.02v0c0.114 1.534 0.931 2.707 2.452 3.518v0c1.849 0.987 3.463 0.849 4.844-0.414 1.38-1.263 3.101-3.825 5.161-7.686zM196.01 42.8c-3.908-2.086-6.262-4.702-7.063-7.851-0.8-3.148-0.13-6.729 2.012-10.742 2.142-4.013 4.863-6.62 8.164-7.82 3.301-1.2 6.847-0.788 10.639 1.235 3.791 2.023 6.068 4.644 6.831 7.862 0.763 3.218 0.07 6.84-2.078 10.865-2.148 4.025-4.792 6.628-7.933 7.809-3.14 1.18-6.665 0.728-10.572-1.358z" fill="#6e1313" data-fill-palette-color="primary"></path><path d="M239.095 41.471l-9.793 17.589 10.717-5.232 4.038-6.866-1.521-1.683 0.561-0.506 8.269 9.152-0.56 0.506-1.574-1.741-9.99 17.015 17.165-9.074-2.694-2.982 0.561-0.507 5.335 5.905-0.561 0.507-1.761-1.949-25.308 13-2.374-2.627 9.397-16.426-16.812 8.219-2.321-2.569 13.678-25.872-1.254-1.387 0.561-0.507 8.67 9.595-0.561 0.507z" fill="#6e1313" data-fill-palette-color="primary"></path><path d="M276.834 100.007l-0.855-2.015-24.944 10.582-2.175-5.128 18.369-22.617-23.003 9.758 0.854 2.015-0.695 0.295-2.129-5.018 0.696-0.295 0.854 2.014 24.248-10.286-0.854-2.015 0.696-0.295 4.288 10.109-14.316 17.397 17.692-7.505-0.855-2.014 0.696-0.295 2.129 5.018z" fill="#6e1313" data-fill-palette-color="primary"></path><path d="M34.402 201.776v0c-5.178 1.999-9.347 1.935-12.507-0.192v0c-2.926-1.962-5.297-5.294-7.112-9.996v0l-4.121-10.671 0.715-0.276 0.96 2.487 24.961-9.639-0.96-2.487 0.714-0.276 4.501 11.655c1.863 4.825 2.274 8.825 1.232 12-1.042 3.175-3.836 5.64-8.383 7.395zM40.14 180.847l-24.961 9.639 0.551 1.429c0.979 2.536 2.581 4.004 4.804 4.405 2.217 0.402 5.438-0.213 9.663-1.845v0l2.181-0.842c5.66-2.186 8.649-4.58 8.965-7.183v0c0.158-1.248-0.128-2.816-0.856-4.703v0z" fill="#6e1313" data-fill-palette-color="primary"></path><path d="M49.558 202.159l0.7-0.542 12.865 16.621-6.075 5.218-0.445-0.574c1.456-2.561 2.203-4.64 2.241-6.238 0.043-1.602-0.67-3.352-2.138-5.25v0l-0.865-1.117-9.88 7.647 0.84 1.085c0.775 1.002 1.804 1.551 3.087 1.649 1.288 0.093 2.677-0.214 4.167-0.923v0l0.371 0.48-9.455 7.318-0.42-0.543c1.303-1.621 2.044-3.02 2.222-4.198 0.178-1.178-0.169-2.331-1.041-3.458v0l-0.597-0.771-10.265 7.945 0.943 1.219c1.514 1.956 3.392 3.169 5.635 3.64 2.233 0.469 4.464 0.247 6.693-0.665v0l0.493 0.637-7.164 5.143-13.583-17.55 0.7-0.542 1.461 1.888 20.971-16.231z" fill="#6e1313" data-fill-palette-color="primary"></path><path d="M74.774 228.897l-6.538 20.296 17.662-12.085-2.537-1.872 0.455-0.616 4.977 3.674-0.454 0.616-1.529-1.128-24.423 16.688-2.737-2.02 8.297-28.592-1.496-1.105 0.455-0.616 10.636 7.851-0.455 0.616z" fill="#6e1313" data-fill-palette-color="primary"></path><path d="M93.504 241.391l0.302-0.703 11.324 4.865-0.303 0.704-2.047-0.88-10.563 24.584 2.048 0.88-0.303 0.704-11.323-4.865 0.302-0.704 2.038 0.876 10.563-24.585z" fill="#6e1313" data-fill-palette-color="primary"></path><path d="M111.021 248.26l0.161-0.87 14.31 2.645-0.161 0.87-4.215-0.779-4.821 26.077 1.438 0.266c2.25 0.416 4.171 0.056 5.763-1.079 1.591-1.129 3.342-2.997 5.254-5.604v0l0.832 0.154-2.473 9.162-21.069-3.894 0.161-0.871 2.347 0.434 4.821-26.077z" fill="#6e1313" data-fill-palette-color="primary"></path><path d="M153.015 278.385v0c1.349-0.097 2.514-0.542 3.494-1.337 0.98-0.801 1.417-1.936 1.312-3.404-0.105-1.462-0.74-2.543-1.907-3.245-1.174-0.7-2.81-1.265-4.908-1.693-2.092-0.429-3.619-0.825-4.583-1.187-0.957-0.364-1.877-0.866-2.76-1.508v0c-1.767-1.276-2.755-3.38-2.965-6.31v0c-0.171-2.394 0.535-4.513 2.118-6.355 1.583-1.842 3.853-2.869 6.81-3.08v0c1.429-0.102 2.929 0 4.5 0.306 1.578 0.306 2.555 0.445 2.932 0.419 0.377-0.027 0.692-0.319 0.944-0.876v0l0.447-0.032 0.86 8.126-0.644 0.046c-1.457-2.249-2.941-4.028-4.451-5.335-1.51-1.308-3.091-1.903-4.745-1.785-1.654 0.118-2.91 0.591-3.768 1.417-0.858 0.833-1.241 1.887-1.15 3.163 0.091 1.277 0.704 2.22 1.838 2.831 1.14 0.603 2.519 1.063 4.138 1.379 1.612 0.317 2.671 0.54 3.179 0.67 0.514 0.123 1.148 0.3 1.903 0.532 0.761 0.225 1.387 0.476 1.879 0.753 0.492 0.277 1.019 0.632 1.582 1.063 0.556 0.432 1 0.919 1.331 1.461v0c0.82 1.238 1.294 2.746 1.421 4.525v0c0.207 2.897-0.532 5.294-2.218 7.19-1.686 1.889-4.008 2.94-6.965 3.151v0c-1.535 0.11-3.302 0.034-5.301-0.229-2.007-0.262-3.119-0.385-3.338-0.369v0c-0.37 0.027-0.702 0.456-0.994 1.288v0l-0.566 0.04-1.094-9.565 0.685-0.049c1.351 2.25 3.009 4.183 4.972 5.797 1.97 1.614 3.974 2.348 6.012 2.202z" fill="#6e1313" data-fill-palette-color="primary"></path><path d="M203.485 249.298v0l-1.399-2.647c-2.306-4.362-3.976-7.001-5.008-7.918v0c-1.166-1.056-2.271-1.507-3.315-1.353v0c-0.603 0.079-1.26 0.306-1.969 0.682-0.715 0.378-1.281 0.797-1.698 1.257-0.408 0.463-0.653 1.02-0.736 1.672-0.083 0.652-0.085 1.294-0.005 1.927 0.071 0.63 0.299 1.451 0.683 2.463v0c0.585 1.461 1.589 3.537 3.012 6.228v0l1.363 2.576c1.534 2.902 2.741 4.908 3.621 6.018 0.876 1.104 1.62 1.829 2.229 2.174v0c1.35 0.779 2.801 0.758 4.355-0.063v0c1.882-0.995 2.683-2.431 2.403-4.309-0.28-1.877-1.459-4.78-3.536-8.707zM204.939 263.112c-3.975 2.102-7.514 2.593-10.619 1.474-3.105-1.119-5.737-3.721-7.898-7.807-2.158-4.08-2.805-7.852-1.944-11.316 0.87-3.461 3.234-6.211 7.092-8.251 3.857-2.04 7.357-2.465 10.499-1.275 3.142 1.189 5.796 3.833 7.963 7.93 2.167 4.098 2.855 7.803 2.064 11.117-0.791 3.314-3.176 6.023-7.157 8.128z" fill="#6e1313" data-fill-palette-color="primary"></path><path d="M212.365 223.143l18.76 8.139-6.358-10.308-7.344-3.396-1.546 1.7-0.567-0.515 8.423-9.267 0.567 0.515-1.605 1.766 18.202 8.398-10.89-16.443-2.743 3.018-0.567-0.515 5.433-5.977 0.567 0.515-1.793 1.973 15.672 24.284-2.422 2.665-17.543-7.866 9.99 16.177-2.369 2.606-27.52-11.249-1.278 1.406-0.567-0.515 8.838-9.724 0.567 0.515z" fill="#6e1313" data-fill-palette-color="primary"></path><path d="M244.124 174.293l-0.875 2.049 25.313 10.807-2.222 5.205-29.491 2.476 23.346 9.967 0.871-2.04 0.705 0.301-2.172 5.086-0.704-0.301 0.871-2.04-24.609-10.505-0.871 2.04-0.704-0.301 4.378-10.255 22.817-1.767-17.958-7.666-0.871 2.04-0.704-0.301 2.175-5.096z" fill="#6e1313" data-fill-palette-color="primary"></path><path d="M4.423 144.073c0-5.968 4.838-10.807 10.807-10.806 5.968 0 10.807 4.838 10.807 10.806 0 5.968-4.838 10.807-10.807 10.807-5.968 0-10.807-4.838-10.807-10.807z" fill="#6e1313" data-fill-palette-color="primary"></path><path d="M255.094 144.073c0-5.968 4.838-10.807 10.807-10.806 5.968 0 10.807 4.838 10.806 10.806 0 5.968-4.838 10.807-10.806 10.807-5.968 0-10.807-4.838-10.807-10.807z" fill="#6e1313" data-fill-palette-color="primary"></path></g><g id="text-1"></g></svg></g></svg></g></svg></g><g></g></svg></g><defs></defs></svg><rect width="280" height="280" fill="none" stroke="none" visibility="hidden"></rect></g></svg></g></svg>